<?xml version="1.0" encoding="UTF-8" standalone="no"?>
<!-- Created with Inkscape (http://www.inkscape.org/) -->

<svg
   xmlns:dc="http://purl.org/dc/elements/1.1/"
   xmlns:cc="http://creativecommons.org/ns#"
   xmlns:rdf="http://www.w3.org/1999/02/22-rdf-syntax-ns#"
   xmlns:svg="http://www.w3.org/2000/svg"
   xmlns="http://www.w3.org/2000/svg"
   xmlns:sodipodi="http://sodipodi.sourceforge.net/DTD/sodipodi-0.dtd"
   xmlns:inkscape="http://www.inkscape.org/namespaces/inkscape"
   width="91.014389mm"
   height="70.056465mm"
   viewBox="0 0 91.01439 70.056466"
   id="svg2"
   version="1.1"
   inkscape:version="0.91+devel+osxmenu r12896"
   sodipodi:docname="input-first-layer.svg">
  <defs
     id="defs4">
    <marker
       inkscape:isstock="true"
       style="overflow:visible"
       id="marker8035"
       refX="0"
       refY="0"
       orient="auto"
       inkscape:stockid="Arrow1Lstart">
      <path
         transform="matrix(0.8,0,0,0.8,10,0)"
         style="fill:#008080;fill-opacity:1;fill-rule:evenodd;stroke:#008000;stroke-width:1.00000003pt;stroke-opacity:1"
         d="M 0,0 5,-5 -12.5,0 5,5 0,0 Z"
         id="path8037"
         inkscape:connector-curvature="0" />
    </marker>
    <marker
       inkscape:isstock="true"
       style="overflow:visible"
       id="marker7845"
       refX="0"
       refY="0"
       orient="auto"
       inkscape:stockid="Arrow1Lstart">
      <path
         transform="matrix(0.8,0,0,0.8,10,0)"
         style="fill:#008080;fill-opacity:1;fill-rule:evenodd;stroke:#008000;stroke-width:1.00000003pt;stroke-opacity:1"
         d="M 0,0 5,-5 -12.5,0 5,5 0,0 Z"
         id="path7847"
         inkscape:connector-curvature="0" />
    </marker>
    <marker
       inkscape:isstock="true"
       style="overflow:visible"
       id="marker7661"
       refX="0"
       refY="0"
       orient="auto"
       inkscape:stockid="Arrow1Lstart">
      <path
         transform="matrix(0.8,0,0,0.8,10,0)"
         style="fill:#008080;fill-opacity:1;fill-rule:evenodd;stroke:#008000;stroke-width:1.00000003pt;stroke-opacity:1"
         d="M 0,0 5,-5 -12.5,0 5,5 0,0 Z"
         id="path7663"
         inkscape:connector-curvature="0" />
    </marker>
    <marker
       inkscape:isstock="true"
       style="overflow:visible"
       id="marker7483"
       refX="0"
       refY="0"
       orient="auto"
       inkscape:stockid="Arrow1Lstart">
      <path
         transform="matrix(0.8,0,0,0.8,10,0)"
         style="fill:#008080;fill-opacity:1;fill-rule:evenodd;stroke:#008000;stroke-width:1.00000003pt;stroke-opacity:1"
         d="M 0,0 5,-5 -12.5,0 5,5 0,0 Z"
         id="path7485"
         inkscape:connector-curvature="0" />
    </marker>
    <marker
       inkscape:isstock="true"
       style="overflow:visible"
       id="marker7311"
       refX="0"
       refY="0"
       orient="auto"
       inkscape:stockid="Arrow1Lstart">
      <path
         transform="matrix(0.8,0,0,0.8,10,0)"
         style="fill:#008080;fill-opacity:1;fill-rule:evenodd;stroke:#008000;stroke-width:1.00000003pt;stroke-opacity:1"
         d="M 0,0 5,-5 -12.5,0 5,5 0,0 Z"
         id="path7313"
         inkscape:connector-curvature="0" />
    </marker>
    <marker
       inkscape:stockid="Arrow1Lend"
       orient="auto"
       refY="0"
       refX="0"
       id="marker7121"
       style="overflow:visible"
       inkscape:isstock="true">
      <path
         id="path7123"
         d="M 0,0 5,-5 -12.5,0 5,5 0,0 Z"
         style="fill:#0000ff;fill-opacity:1;fill-rule:evenodd;stroke:#000000;stroke-width:1.00000003pt;stroke-opacity:1"
         transform="matrix(-0.8,0,0,-0.8,-10,0)"
         inkscape:connector-curvature="0" />
    </marker>
    <marker
       inkscape:stockid="Arrow1Lend"
       orient="auto"
       refY="0"
       refX="0"
       id="marker6961"
       style="overflow:visible"
       inkscape:isstock="true">
      <path
         id="path6963"
         d="M 0,0 5,-5 -12.5,0 5,5 0,0 Z"
         style="fill:#0000ff;fill-opacity:1;fill-rule:evenodd;stroke:#000000;stroke-width:1.00000003pt;stroke-opacity:1"
         transform="matrix(-0.8,0,0,-0.8,-10,0)"
         inkscape:connector-curvature="0" />
    </marker>
    <marker
       inkscape:stockid="Arrow1Lend"
       orient="auto"
       refY="0"
       refX="0"
       id="marker6807"
       style="overflow:visible"
       inkscape:isstock="true">
      <path
         id="path6809"
         d="M 0,0 5,-5 -12.5,0 5,5 0,0 Z"
         style="fill:#0000ff;fill-opacity:1;fill-rule:evenodd;stroke:#000000;stroke-width:1.00000003pt;stroke-opacity:1"
         transform="matrix(-0.8,0,0,-0.8,-10,0)"
         inkscape:connector-curvature="0" />
    </marker>
    <marker
       inkscape:stockid="Arrow1Lend"
       orient="auto"
       refY="0"
       refX="0"
       id="marker6659"
       style="overflow:visible"
       inkscape:isstock="true">
      <path
         id="path6661"
         d="M 0,0 5,-5 -12.5,0 5,5 0,0 Z"
         style="fill:#0000ff;fill-opacity:1;fill-rule:evenodd;stroke:#000000;stroke-width:1.00000003pt;stroke-opacity:1"
         transform="matrix(-0.8,0,0,-0.8,-10,0)"
         inkscape:connector-curvature="0" />
    </marker>
    <marker
       inkscape:stockid="Arrow1Lend"
       orient="auto"
       refY="0"
       refX="0"
       id="marker6517"
       style="overflow:visible"
       inkscape:isstock="true">
      <path
         id="path6519"
         d="M 0,0 5,-5 -12.5,0 5,5 0,0 Z"
         style="fill:#0000ff;fill-opacity:1;fill-rule:evenodd;stroke:#000000;stroke-width:1.00000003pt;stroke-opacity:1"
         transform="matrix(-0.8,0,0,-0.8,-10,0)"
         inkscape:connector-curvature="0" />
    </marker>
    <marker
       inkscape:stockid="Arrow1Lend"
       orient="auto"
       refY="0"
       refX="0"
       id="marker6381"
       style="overflow:visible"
       inkscape:isstock="true">
      <path
         id="path6383"
         d="M 0,0 5,-5 -12.5,0 5,5 0,0 Z"
         style="fill:#0000ff;fill-opacity:1;fill-rule:evenodd;stroke:#000000;stroke-width:1.00000003pt;stroke-opacity:1"
         transform="matrix(-0.8,0,0,-0.8,-10,0)"
         inkscape:connector-curvature="0" />
    </marker>
    <marker
       inkscape:isstock="true"
       style="overflow:visible"
       id="marker5879"
       refX="0"
       refY="0"
       orient="auto"
       inkscape:stockid="Arrow1Lend"
       inkscape:collect="always">
      <path
         transform="matrix(-0.8,0,0,-0.8,-10,0)"
         style="fill:#0000ff;fill-opacity:1;fill-rule:evenodd;stroke:#000000;stroke-width:1.00000003pt;stroke-opacity:1"
         d="M 0,0 5,-5 -12.5,0 5,5 0,0 Z"
         id="path5881"
         inkscape:connector-curvature="0" />
    </marker>
    <marker
       inkscape:isstock="true"
       style="overflow:visible"
       id="marker5785"
       refX="0"
       refY="0"
       orient="auto"
       inkscape:stockid="Arrow1Lend">
      <path
         transform="matrix(-0.8,0,0,-0.8,-10,0)"
         style="fill:#0000ff;fill-opacity:1;fill-rule:evenodd;stroke:#000000;stroke-width:1.00000003pt;stroke-opacity:1"
         d="M 0,0 5,-5 -12.5,0 5,5 0,0 Z"
         id="path5787"
         inkscape:connector-curvature="0" />
    </marker>
    <marker
       inkscape:isstock="true"
       style="overflow:visible"
       id="marker5697"
       refX="0"
       refY="0"
       orient="auto"
       inkscape:stockid="Arrow1Lend">
      <path
         transform="matrix(-0.8,0,0,-0.8,-10,0)"
         style="fill:#0000ff;fill-opacity:1;fill-rule:evenodd;stroke:#000000;stroke-width:1.00000003pt;stroke-opacity:1"
         d="M 0,0 5,-5 -12.5,0 5,5 0,0 Z"
         id="path5699"
         inkscape:connector-curvature="0" />
    </marker>
    <marker
       inkscape:isstock="true"
       style="overflow:visible"
       id="marker5615"
       refX="0"
       refY="0"
       orient="auto"
       inkscape:stockid="Arrow1Lend">
      <path
         transform="matrix(-0.8,0,0,-0.8,-10,0)"
         style="fill:#0000ff;fill-opacity:1;fill-rule:evenodd;stroke:#000000;stroke-width:1.00000003pt;stroke-opacity:1"
         d="M 0,0 5,-5 -12.5,0 5,5 0,0 Z"
         id="path5617"
         inkscape:connector-curvature="0" />
    </marker>
    <marker
       inkscape:isstock="true"
       style="overflow:visible"
       id="marker5539"
       refX="0"
       refY="0"
       orient="auto"
       inkscape:stockid="Arrow1Lend">
      <path
         transform="matrix(-0.8,0,0,-0.8,-10,0)"
         style="fill:#0000ff;fill-opacity:1;fill-rule:evenodd;stroke:#000000;stroke-width:1.00000003pt;stroke-opacity:1"
         d="M 0,0 5,-5 -12.5,0 5,5 0,0 Z"
         id="path5541"
         inkscape:connector-curvature="0" />
    </marker>
    <marker
       inkscape:stockid="Arrow1Lend"
       orient="auto"
       refY="0"
       refX="0"
       id="Arrow1Lend"
       style="overflow:visible"
       inkscape:isstock="true"
       inkscape:collect="always">
      <path
         id="path4621"
         d="M 0,0 5,-5 -12.5,0 5,5 0,0 Z"
         style="fill:#0000ff;fill-opacity:1;fill-rule:evenodd;stroke:#000000;stroke-width:1.00000003pt;stroke-opacity:1"
         transform="matrix(-0.8,0,0,-0.8,-10,0)"
         inkscape:connector-curvature="0" />
    </marker>
    <marker
       inkscape:stockid="Arrow1Lstart"
       orient="auto"
       refY="0"
       refX="0"
       id="marker5335"
       style="overflow:visible"
       inkscape:isstock="true"
       inkscape:collect="always">
      <path
         id="path5337"
         d="M 0,0 5,-5 -12.5,0 5,5 0,0 Z"
         style="fill:#008080;fill-opacity:1;fill-rule:evenodd;stroke:#008000;stroke-width:1.00000003pt;stroke-opacity:1"
         transform="matrix(0.8,0,0,0.8,10,0)"
         inkscape:connector-curvature="0" />
    </marker>
    <marker
       inkscape:stockid="Arrow1Lstart"
       orient="auto"
       refY="0"
       refX="0"
       id="marker5271"
       style="overflow:visible"
       inkscape:isstock="true">
      <path
         id="path5273"
         d="M 0,0 5,-5 -12.5,0 5,5 0,0 Z"
         style="fill:#0000ff;fill-opacity:1;fill-rule:evenodd;stroke:#000000;stroke-width:1.00000003pt;stroke-opacity:1"
         transform="matrix(0.8,0,0,0.8,10,0)"
         inkscape:connector-curvature="0" />
    </marker>
    <marker
       inkscape:stockid="Arrow1Lstart"
       orient="auto"
       refY="0"
       refX="0"
       id="marker5213"
       style="overflow:visible"
       inkscape:isstock="true">
      <path
         id="path5215"
         d="M 0,0 5,-5 -12.5,0 5,5 0,0 Z"
         style="fill:#0000ff;fill-opacity:1;fill-rule:evenodd;stroke:#000000;stroke-width:1.00000003pt;stroke-opacity:1"
         transform="matrix(0.8,0,0,0.8,10,0)"
         inkscape:connector-curvature="0" />
    </marker>
    <marker
       inkscape:stockid="Arrow1Lstart"
       orient="auto"
       refY="0"
       refX="0"
       id="marker5161"
       style="overflow:visible"
       inkscape:isstock="true">
      <path
         id="path5163"
         d="M 0,0 5,-5 -12.5,0 5,5 0,0 Z"
         style="fill:#0000ff;fill-opacity:1;fill-rule:evenodd;stroke:#000000;stroke-width:1.00000003pt;stroke-opacity:1"
         transform="matrix(0.8,0,0,0.8,10,0)"
         inkscape:connector-curvature="0" />
    </marker>
    <marker
       inkscape:stockid="Arrow1Lstart"
       orient="auto"
       refY="0"
       refX="0"
       id="marker5115"
       style="overflow:visible"
       inkscape:isstock="true">
      <path
         id="path5117"
         d="M 0,0 5,-5 -12.5,0 5,5 0,0 Z"
         style="fill:#0000ff;fill-opacity:1;fill-rule:evenodd;stroke:#000000;stroke-width:1.00000003pt;stroke-opacity:1"
         transform="matrix(0.8,0,0,0.8,10,0)"
         inkscape:connector-curvature="0" />
    </marker>
    <marker
       inkscape:isstock="true"
       style="overflow:visible"
       id="marker4981"
       refX="0"
       refY="0"
       orient="auto"
       inkscape:stockid="Arrow1Lstart">
      <path
         transform="matrix(0.8,0,0,0.8,10,0)"
         style="fill:#0000ff;fill-opacity:1;fill-rule:evenodd;stroke:#000000;stroke-width:1.00000003pt;stroke-opacity:1"
         d="M 0,0 5,-5 -12.5,0 5,5 0,0 Z"
         id="path4983"
         inkscape:connector-curvature="0" />
    </marker>
    <marker
       inkscape:isstock="true"
       style="overflow:visible"
       id="marker4947"
       refX="0"
       refY="0"
       orient="auto"
       inkscape:stockid="Arrow1Lstart">
      <path
         transform="matrix(0.8,0,0,0.8,10,0)"
         style="fill:#0000ff;fill-opacity:1;fill-rule:evenodd;stroke:#000000;stroke-width:1.00000003pt;stroke-opacity:1"
         d="M 0,0 5,-5 -12.5,0 5,5 0,0 Z"
         id="path4949"
         inkscape:connector-curvature="0" />
    </marker>
    <marker
       inkscape:isstock="true"
       style="overflow:visible"
       id="marker4919"
       refX="0"
       refY="0"
       orient="auto"
       inkscape:stockid="Arrow1Lstart">
      <path
         transform="matrix(0.8,0,0,0.8,10,0)"
         style="fill:#0000ff;fill-opacity:1;fill-rule:evenodd;stroke:#000000;stroke-width:1.00000003pt;stroke-opacity:1"
         d="M 0,0 5,-5 -12.5,0 5,5 0,0 Z"
         id="path4921"
         inkscape:connector-curvature="0" />
    </marker>
    <marker
       inkscape:isstock="true"
       style="overflow:visible"
       id="marker4897"
       refX="0"
       refY="0"
       orient="auto"
       inkscape:stockid="Arrow1Lstart">
      <path
         transform="matrix(0.8,0,0,0.8,10,0)"
         style="fill:#0000ff;fill-opacity:1;fill-rule:evenodd;stroke:#000000;stroke-width:1.00000003pt;stroke-opacity:1"
         d="M 0,0 5,-5 -12.5,0 5,5 0,0 Z"
         id="path4899"
         inkscape:connector-curvature="0" />
    </marker>
    <marker
       inkscape:isstock="true"
       style="overflow:visible"
       id="marker5879-6"
       refX="0"
       refY="0"
       orient="auto"
       inkscape:stockid="Arrow1Lend">
      <path
         inkscape:connector-curvature="0"
         transform="matrix(-0.8,0,0,-0.8,-10,0)"
         style="fill:#0000ff;fill-opacity:1;fill-rule:evenodd;stroke:#000000;stroke-width:1.00000003pt;stroke-opacity:1"
         d="M 0,0 5,-5 -12.5,0 5,5 0,0 Z"
         id="path5881-4" />
    </marker>
    <marker
       inkscape:isstock="true"
       style="overflow:visible"
       id="marker5539-8"
       refX="0"
       refY="0"
       orient="auto"
       inkscape:stockid="Arrow1Lend">
      <path
         inkscape:connector-curvature="0"
         transform="matrix(-0.8,0,0,-0.8,-10,0)"
         style="fill:#0000ff;fill-opacity:1;fill-rule:evenodd;stroke:#000000;stroke-width:1.00000003pt;stroke-opacity:1"
         d="M 0,0 5,-5 -12.5,0 5,5 0,0 Z"
         id="path5541-2" />
    </marker>
    <marker
       inkscape:isstock="true"
       style="overflow:visible"
       id="marker5615-5"
       refX="0"
       refY="0"
       orient="auto"
       inkscape:stockid="Arrow1Lend">
      <path
         inkscape:connector-curvature="0"
         transform="matrix(-0.8,0,0,-0.8,-10,0)"
         style="fill:#0000ff;fill-opacity:1;fill-rule:evenodd;stroke:#000000;stroke-width:1.00000003pt;stroke-opacity:1"
         d="M 0,0 5,-5 -12.5,0 5,5 0,0 Z"
         id="path5617-4" />
    </marker>
    <marker
       inkscape:isstock="true"
       style="overflow:visible"
       id="marker5697-4"
       refX="0"
       refY="0"
       orient="auto"
       inkscape:stockid="Arrow1Lend">
      <path
         inkscape:connector-curvature="0"
         transform="matrix(-0.8,0,0,-0.8,-10,0)"
         style="fill:#0000ff;fill-opacity:1;fill-rule:evenodd;stroke:#000000;stroke-width:1.00000003pt;stroke-opacity:1"
         d="M 0,0 5,-5 -12.5,0 5,5 0,0 Z"
         id="path5699-2" />
    </marker>
    <marker
       inkscape:isstock="true"
       style="overflow:visible"
       id="marker5785-5"
       refX="0"
       refY="0"
       orient="auto"
       inkscape:stockid="Arrow1Lend">
      <path
         inkscape:connector-curvature="0"
         transform="matrix(-0.8,0,0,-0.8,-10,0)"
         style="fill:#0000ff;fill-opacity:1;fill-rule:evenodd;stroke:#000000;stroke-width:1.00000003pt;stroke-opacity:1"
         d="M 0,0 5,-5 -12.5,0 5,5 0,0 Z"
         id="path5787-1" />
    </marker>
  </defs>
  <sodipodi:namedview
     id="base"
     pagecolor="#ffffff"
     bordercolor="#666666"
     borderopacity="1.0"
     inkscape:pageopacity="0.0"
     inkscape:pageshadow="2"
     inkscape:zoom="0.7071068"
     inkscape:cx="400.56887"
     inkscape:cy="93.42278"
     inkscape:document-units="mm"
     inkscape:current-layer="layer1"
     showgrid="false"
     inkscape:window-width="1920"
     inkscape:window-height="1155"
     inkscape:window-x="1080"
     inkscape:window-y="423"
     inkscape:window-maximized="0"
     fit-margin-top="0"
     fit-margin-left="0"
     fit-margin-right="0"
     fit-margin-bottom="0" />
  <metadata
     id="metadata7">
    <rdf:RDF>
      <cc:Work
         rdf:about="">
        <dc:format>image/svg+xml</dc:format>
        <dc:type
           rdf:resource="http://purl.org/dc/dcmitype/StillImage" />
        <dc:title></dc:title>
      </cc:Work>
    </rdf:RDF>
  </metadata>
  <g
     inkscape:label="Layer 1"
     inkscape:groupmode="layer"
     id="layer1"
     transform="translate(-25.645892,-133.59225)">
    <circle
       style="fill:none;stroke:#000000;stroke-width:1;stroke-miterlimit:4;stroke-dasharray:none;stroke-dashoffset:0;stroke-opacity:1"
       id="path4514"
       cx="54.901047"
       cy="140.32887"
       r="6.2366071" />
    <circle
       style="fill:none;stroke:#000000;stroke-width:0.99999994;stroke-miterlimit:4;stroke-dasharray:none;stroke-dashoffset:0;stroke-opacity:1"
       id="path4514-1"
       cx="80.792419"
       cy="140.32886"
       r="6.2366071" />
    <g
       id="g4602">
      <circle
         r="6.2366071"
         cy="196.91211"
         cx="43.372772"
         id="path4514-41"
         style="fill:none;stroke:#000000;stroke-width:0.99999994;stroke-miterlimit:4;stroke-dasharray:none;stroke-dashoffset:0;stroke-opacity:1" />
      <circle
         r="6.2366071"
         cy="196.91209"
         cx="69.264137"
         id="path4514-1-0"
         style="fill:none;stroke:#000000;stroke-width:0.99999988;stroke-miterlimit:4;stroke-dasharray:none;stroke-dashoffset:0;stroke-opacity:1" />
      <circle
         r="6.2366071"
         cy="196.91209"
         cx="93.832588"
         id="path4514-8-1"
         style="fill:none;stroke:#000000;stroke-width:0.99999988;stroke-miterlimit:4;stroke-dasharray:none;stroke-dashoffset:0;stroke-opacity:1" />
    </g>
    <path
       style="opacity:1;fill:#0000ff;fill-opacity:1;fill-rule:evenodd;stroke:#000000;stroke-width:0.26458332px;stroke-linecap:butt;stroke-linejoin:miter;stroke-miterlimit:4;stroke-dasharray:none;stroke-dashoffset:0;stroke-opacity:1;marker-end:url(#marker5785)"
       d="M 44.60119,190.03274 53.672618,146.1875"
       id="path4589"
       inkscape:connector-curvature="0" />
    <path
       style="opacity:1;fill:#0000ff;fill-opacity:1;fill-rule:evenodd;stroke:#000000;stroke-width:0.26458332px;stroke-linecap:butt;stroke-linejoin:miter;stroke-miterlimit:4;stroke-dasharray:none;stroke-dashoffset:0;stroke-opacity:1;marker-end:url(#marker5697)"
       d="M 70.605951,190.03274 55.108927,146.56548"
       id="path4591"
       inkscape:connector-curvature="0" />
    <path
       style="opacity:1;fill:#0000ff;fill-opacity:1;fill-rule:evenodd;stroke:#000000;stroke-width:0.26458332px;stroke-linecap:butt;stroke-linejoin:miter;stroke-miterlimit:4;stroke-dasharray:none;stroke-dashoffset:0;stroke-opacity:1;marker-end:url(#marker5615)"
       d="M 92.604166,190.41071 82.020832,146.1875"
       id="path4607"
       inkscape:connector-curvature="0" />
    <path
       style="opacity:1;fill:#0000ff;fill-opacity:1;fill-rule:evenodd;stroke:#000000;stroke-width:0.26458332px;stroke-linecap:butt;stroke-linejoin:miter;stroke-miterlimit:4;stroke-dasharray:none;stroke-dashoffset:0;stroke-opacity:1;marker-end:url(#marker5539)"
       d="M 70.681547,190.41071 80.886905,147.6994"
       id="path4609"
       inkscape:connector-curvature="0" />
    <path
       style="opacity:1;fill:#0000ff;fill-opacity:1;fill-rule:evenodd;stroke:#000000;stroke-width:0.26458332px;stroke-linecap:butt;stroke-linejoin:miter;stroke-miterlimit:4;stroke-dasharray:none;stroke-dashoffset:0;stroke-opacity:1;marker-end:url(#Arrow1Lend)"
       d="M 92.22619,189.65476 59.720238,146.1875"
       id="path4611"
       inkscape:connector-curvature="0" />
    <path
       style="opacity:1;fill:#0000ff;fill-opacity:1;fill-rule:evenodd;stroke:#000000;stroke-width:0.26458332px;stroke-linecap:butt;stroke-linejoin:miter;stroke-miterlimit:4;stroke-dasharray:none;stroke-dashoffset:0;stroke-opacity:1;marker-end:url(#marker5879)"
       d="M 46.113094,191.16666 77.485117,146.1875"
       id="path4613"
       inkscape:connector-curvature="0" />
    <path
       style="opacity:1;fill:#008080;fill-opacity:1;fill-rule:evenodd;stroke:#008000;stroke-width:0.26458332;stroke-linecap:butt;stroke-linejoin:miter;stroke-miterlimit:4;stroke-dasharray:0.26458332, 0.26458332;stroke-dashoffset:0;stroke-opacity:1;marker-start:url(#marker7845)"
       d="m 47.36062,189.60393 9.071379,-43.84524"
       id="path4589-0"
       inkscape:connector-curvature="0" />
    <path
       style="opacity:1;fill:#008080;fill-opacity:1;fill-rule:evenodd;stroke:#008000;stroke-width:0.26458332;stroke-linecap:butt;stroke-linejoin:miter;stroke-miterlimit:4;stroke-dasharray:0.26458332, 0.26458332;stroke-dashoffset:0;stroke-opacity:1;marker-start:url(#marker7661)"
       d="M 73.365233,189.60393 57.8683,146.13667"
       id="path4591-0"
       inkscape:connector-curvature="0" />
    <path
       style="opacity:1;fill:#008080;fill-opacity:1;fill-rule:evenodd;stroke:#008000;stroke-width:0.26458332;stroke-linecap:butt;stroke-linejoin:miter;stroke-miterlimit:4;stroke-dasharray:0.26458332, 0.26458332;stroke-dashoffset:0;stroke-opacity:1;marker-start:url(#marker7483)"
       d="M 95.363317,189.9819 84.780047,145.75869"
       id="path4607-5"
       inkscape:connector-curvature="0" />
    <path
       style="opacity:1;fill:#008080;fill-opacity:1;fill-rule:evenodd;stroke:#008000;stroke-width:0.26458332;stroke-linecap:butt;stroke-linejoin:miter;stroke-miterlimit:4;stroke-dasharray:0.26458332, 0.26458332;stroke-dashoffset:0;stroke-opacity:1;marker-start:url(#marker7311)"
       d="m 73.440833,189.9819 10.20529,-42.71131"
       id="path4609-0"
       inkscape:connector-curvature="0" />
    <path
       style="opacity:1;fill:#008080;fill-opacity:1;fill-rule:evenodd;stroke:#008000;stroke-width:0.26458332;stroke-linecap:butt;stroke-linejoin:miter;stroke-miterlimit:4;stroke-dasharray:0.26458332, 0.26458332;stroke-dashoffset:0;stroke-opacity:1;marker-start:url(#marker5335)"
       d="M 94.98535,189.22595 62.479583,145.75869"
       id="path4611-1"
       inkscape:connector-curvature="0" />
    <path
       style="opacity:1;fill:#008080;fill-opacity:1;fill-rule:evenodd;stroke:#008000;stroke-width:0.26458332;stroke-linecap:butt;stroke-linejoin:miter;stroke-miterlimit:4;stroke-dasharray:0.26458332, 0.26458332;stroke-dashoffset:0;stroke-opacity:1;marker-start:url(#marker8035)"
       d="M 48.872511,190.73785 80.244364,145.75869"
       id="path4613-9"
       inkscape:connector-curvature="0" />
    <text
       xml:space="preserve"
       style="font-style:normal;font-weight:normal;font-size:10.58333302px;line-height:125%;font-family:sans-serif;letter-spacing:0px;word-spacing:0px;fill:#000000;fill-opacity:1;stroke:none;stroke-width:0.26458332px;stroke-linecap:butt;stroke-linejoin:miter;stroke-opacity:1"
       x="30.994061"
       y="174.24512"
       id="text9443"
       sodipodi:linespacing="125%"><tspan
         sodipodi:role="line"
         id="tspan9445"
         x="30.994061"
         y="174.24512"
         style="stroke-width:0.26458332px">W</tspan></text>
    <g
       id="g9459"
       transform="translate(-6.879167,21.695841)">
      <text
         sodipodi:linespacing="125%"
         id="text9447"
         y="152.54958"
         x="109.46191"
         style="font-style:normal;font-weight:normal;font-size:10.58333302px;line-height:125%;font-family:sans-serif;letter-spacing:0px;word-spacing:0px;fill:#000000;fill-opacity:1;stroke:none;stroke-width:0.26458332px;stroke-linecap:butt;stroke-linejoin:miter;stroke-opacity:1"
         xml:space="preserve"><tspan
           style="fill:#008000;stroke:#008000;stroke-width:0.26458332px"
           y="152.54958"
           x="109.46191"
           id="tspan9449"
           sodipodi:role="line">W</tspan></text>
      <path
         inkscape:connector-curvature="0"
         id="path9457"
         d="m 104.13244,148.09993 2.45684,4.15774 1.7009,-3.96875"
         style="opacity:1;fill:#008000;fill-opacity:1;fill-rule:evenodd;stroke:#000000;stroke-width:0.26458332px;stroke-linecap:butt;stroke-linejoin:miter;stroke-miterlimit:4;stroke-dasharray:none;stroke-dashoffset:0;stroke-opacity:1" />
    </g>
    <g
       id="g9470"
       transform="translate(-99.407738,-0.03779762)">
      <path
         inkscape:connector-curvature="0"
         id="path9464"
         d="m 128.32292,161.68452 c -0.26413,1.05649 -0.20869,0.72455 -0.37798,2.07887 -0.0156,0.12502 0.0247,0.25443 0,0.37798 -0.0509,0.25469 -0.13805,0.50125 -0.18899,0.75595 -0.0248,0.12395 0.048,0.47095 0,0.56696 -0.0398,0.0797 -0.14915,0.10931 -0.18899,0.18899 -0.0563,0.11269 0.0306,0.25575 0,0.37798 -0.0483,0.19326 -0.16081,0.36975 -0.18899,0.56696 -0.0356,0.24945 0,0.50397 0,0.75595 0,0.37798 0,0.75596 0,1.13393 0,0.126 0.0306,0.25575 0,0.37798 -0.0342,0.13666 -0.14444,0.24434 -0.18898,0.37797 -0.0199,0.0598 0,0.126 0,0.18899 0,0.25199 0,0.50397 0,0.75596 0,0.12599 0.0207,0.25369 0,0.37797 -0.0427,0.25621 -0.14629,0.49975 -0.18899,0.75595 -0.0207,0.12428 0,0.25199 0,0.37798 0,0.69296 0,1.38591 0,2.07887 0,0.063 0,0.12599 0,0.18899 0,0.063 -0.0446,0.14444 0,0.18899 0.25198,0.25198 0.18899,-0.31499 0.18899,0.18898"
         style="opacity:1;fill:#1a1a1a;fill-opacity:1;fill-rule:evenodd;stroke:#000000;stroke-width:0.26458332px;stroke-linecap:butt;stroke-linejoin:miter;stroke-miterlimit:4;stroke-dasharray:none;stroke-dashoffset:0;stroke-opacity:1" />
      <path
         inkscape:connector-curvature="0"
         id="path9468"
         d="m 125.11012,163.5744 c 0.84645,0.39972 0.72761,-0.55279 1.13393,-0.75595 0.0563,-0.0282 0.14444,0.0445 0.18898,0 0.0446,-0.0445 -0.0445,-0.14444 0,-0.18899 0.0446,-0.0445 0.14445,0.0446 0.18899,0 0.0445,-0.0445 -0.0445,-0.14444 0,-0.18898 0.0445,-0.0446 0.14445,0.0445 0.18899,0 0.0445,-0.0446 -0.0445,-0.14445 0,-0.18899 0.0891,-0.0891 0.28889,0.0891 0.37798,0 0.0445,-0.0445 -0.0446,-0.14445 0,-0.18899 0.0445,-0.0445 0.13264,0.0282 0.18898,0 0.0797,-0.0398 0.126,-0.126 0.18899,-0.18899 0.063,-0.063 0.14915,-0.1093 0.18899,-0.18899 0.0282,-0.0563 0,-0.12599 0,-0.18899 0,-0.063 -0.0446,-0.14444 0,-0.18898 0.0446,-0.0445 0.12599,0 0.18899,0 0.0458,0 0.56088,-0.006 0.56696,0 0.0446,0.0445 -0.0445,0.14444 0,0.18898 0.0446,0.0445 0.14445,-0.0445 0.18899,0 1.8e-4,1.8e-4 -2.6e-4,0.56611 0,0.56697 0.0282,0.0845 0.14915,0.1093 0.18899,0.18899 0.0594,0.11878 -0.0594,0.63717 0,0.75595 0.0797,0.15937 0.32163,0.20894 0.37798,0.37797 0.0456,0.13677 -0.0623,0.69366 0,0.75596 0.0445,0.0445 0.14444,-0.0445 0.18898,0 0.0891,0.0891 -0.0891,0.28888 0,0.37797 0.0445,0.0445 0.14445,-0.0445 0.18899,0 0.0891,0.0891 -0.0891,0.28889 0,0.37798 0.0446,0.0445 0.14445,-0.0446 0.18899,0 0.0445,0.0445 -0.0445,0.14444 0,0.18899 0.25198,0.25198 0.18899,-0.31498 0.18899,0.18898"
         style="opacity:1;fill:#1a1a1a;fill-opacity:1;fill-rule:evenodd;stroke:#000000;stroke-width:0.26458332px;stroke-linecap:butt;stroke-linejoin:miter;stroke-miterlimit:4;stroke-dasharray:none;stroke-dashoffset:0;stroke-opacity:1" />
    </g>
    <path
       style="opacity:1;fill:#008000;fill-opacity:1;fill-rule:evenodd;stroke:#000000;stroke-width:0.26458332px;stroke-linecap:butt;stroke-linejoin:miter;stroke-miterlimit:4;stroke-dasharray:none;stroke-dashoffset:0;stroke-opacity:1"
       d="m 115.8497,166.7872 c 0,0.88194 0,1.76389 0,2.64583 0,0.18899 -0.0458,0.38362 0,0.56697 0.0216,0.0864 0.16082,0.10447 0.18899,0.18899 0.0398,0.11952 0,0.25198 0,0.37797 0,0.12599 0.0398,0.25845 0,0.37798 -0.0282,0.0845 -0.14915,0.1093 -0.18899,0.18899 -0.0282,0.0563 0,0.12599 0,0.18898 0,0.063 0,0.126 0,0.18899 0,0.31498 0,0.62996 0,0.94494 0,0.44098 0,0.88195 0,1.32292 0,0.12599 0.0306,0.25575 0,0.37798 -0.0483,0.19326 -0.14067,0.3737 -0.18899,0.56696 -0.0249,0.0997 0.0421,0.50381 0,0.56696 -0.0988,0.14826 -0.29829,0.21861 -0.37797,0.37798 -0.0708,0.14159 0.0654,0.93783 0,1.13393 -0.0446,0.13363 -0.14445,0.24434 -0.18899,0.37797 -0.0395,0.11863 0,0.60382 0,0.75596 0,0.69295 0,1.38591 0,2.07887"
       id="path9474"
       inkscape:connector-curvature="0" />
    <path
       style="opacity:1;fill:#008000;fill-opacity:1;fill-rule:evenodd;stroke:#008000;stroke-width:0.26458332px;stroke-linecap:butt;stroke-linejoin:miter;stroke-miterlimit:4;stroke-dasharray:none;stroke-dashoffset:0;stroke-opacity:1"
       d="m 113.86533,178.22098 c 0.0895,0.28956 0.19446,0.38345 0.37797,0.56696 0.0315,0.0315 0.0746,0.0547 0.0945,0.0945 0.0652,0.13034 -0.11444,0.0845 0.0945,0.18899 0.0282,0.0141 0.0722,-0.0223 0.0945,0 0.0223,0.0223 -0.0223,0.0722 0,0.0945 0.19551,0.19551 -0.008,-0.29877 0.18899,0.0945 0.0141,0.0282 -0.0223,0.0722 0,0.0945 0.0223,0.0223 0.0722,-0.0223 0.0945,0 0.0223,0.0223 -0.0223,0.0722 0,0.0945 0.0223,0.0223 0.0722,-0.0223 0.0945,0 0.0223,0.0223 -0.0223,0.0722 0,0.0945 0.0223,0.0223 0.0722,-0.0223 0.0945,0 0.0445,0.0445 -0.0446,0.14444 0,0.18898 0.0223,0.0223 0.0663,-0.0141 0.0945,0 0.0398,0.0199 0.0546,0.0746 0.0945,0.0945 0.0265,0.0132 0.35146,0.0132 0.37798,0 0.0398,-0.0199 0.0546,-0.0746 0.0945,-0.0945 0.0282,-0.0141 0.0722,0.0223 0.0945,0 0.0223,-0.0223 -0.0141,-0.0663 0,-0.0945 0.0199,-0.0398 0.0746,-0.0546 0.0945,-0.0945 0.0282,-0.0564 -0.0282,-0.13265 0,-0.18899 0.0199,-0.0398 0.0746,-0.0546 0.0945,-0.0945 0.0282,-0.0563 -0.0282,-0.13264 0,-0.18898 0.0199,-0.0399 0.0746,-0.0547 0.0945,-0.0945 0.0282,-0.0563 -0.0282,-0.13264 0,-0.18899 0.0199,-0.0398 0.0746,-0.0546 0.0945,-0.0945 0.0141,-0.0282 -0.0223,-0.0722 0,-0.0945 0.0223,-0.0223 0.0722,0.0223 0.0945,0 0.0223,-0.0223 -0.0223,-0.0722 0,-0.0945 0.0223,-0.0223 0.0722,0.0223 0.0945,0 0.0223,-0.0223 -0.0141,-0.0663 0,-0.0945 0.0199,-0.0399 0.0746,-0.0546 0.0945,-0.0945 0.0141,-0.0282 -0.0223,-0.0722 0,-0.0945 0.0223,-0.0223 0.0722,0.0223 0.0945,0 0.0223,-0.0223 0.0223,-0.0722 0,-0.0945 -0.0259,-0.0258 -0.32671,0.0256 -0.37798,0 -0.0398,-0.0199 -0.0522,-0.0804 -0.0945,-0.0945 -0.0897,-0.0299 -0.18899,0 -0.28348,0 -0.18899,0 -0.37798,0 -0.56697,0 -0.22048,0 -0.44097,0 -0.66146,0 -0.0534,0 -0.24109,-0.017 -0.28348,0 -0.13079,0.0523 -0.25198,0.12599 -0.37797,0.18899 z m 1.5119,-3.2128 0.18899,-0.47247"
       id="path9484"
       inkscape:connector-curvature="0" />
    <path
       style="opacity:1;fill:none;fill-opacity:1;fill-rule:evenodd;stroke:#008000;stroke-width:0.76499999;stroke-linecap:butt;stroke-linejoin:miter;stroke-miterlimit:4;stroke-dasharray:none;stroke-dashoffset:0;stroke-opacity:1"
       d="m 56.687865,188.1144 c -0.623628,-0.62363 -1.247259,-1.24726 -1.870887,-1.87089 -0.06236,-0.0624 -0.147646,-0.10821 -0.18709,-0.18709 -0.261205,-0.52241 0.782899,0.30654 -0.374176,-0.56127 -0.111559,-0.0837 -0.275572,-0.0885 -0.374177,-0.18708 -0.0441,-0.0441 0.0441,-0.143 0,-0.18709 -0.0441,-0.0441 -0.13131,0.0279 -0.187089,0 -0.07888,-0.0395 -0.124725,-0.12473 -0.18709,-0.18709 -0.06236,-0.0624 -0.138165,-0.11371 -0.187087,-0.18709 -0.07735,-0.11603 -0.10342,-0.26262 -0.187089,-0.37418 -0.105834,-0.14111 -0.249452,-0.24945 -0.374177,-0.37418 -0.249451,-0.24945 -0.472881,-0.52797 -0.748355,-0.74835 -0.17558,-0.14047 -0.402272,-0.21518 -0.561266,-0.37418 -0.0986,-0.0986 -0.115342,-0.2546 -0.187089,-0.37417 -0.115684,-0.19281 -0.215183,-0.40228 -0.374177,-0.56127 -0.0441,-0.0441 -0.13131,0.0279 -0.187089,0 -0.224507,-0.11225 -0.336759,-0.44901 -0.561266,-0.56127 -0.111557,-0.0558 -0.285983,0.0882 -0.374177,0 -0.0441,-0.0441 0.0441,-0.14299 0,-0.18709 -0.0441,-0.0441 -0.124727,0 -0.187089,0 -0.374177,0 -0.748356,0 -1.122532,0 -0.06236,0 -0.124725,0 -0.187089,0 -0.06236,0 -0.142992,0.0441 -0.187087,0 -0.0441,-0.0441 0.05916,-0.16736 0,-0.18708 -0.236652,-0.0789 -0.498904,0 -0.748356,0"
       id="path4612"
       inkscape:connector-curvature="0" />
    <path
       style="opacity:1;fill:none;fill-opacity:1;fill-rule:evenodd;stroke:#008000;stroke-width:0.76499999;stroke-linecap:butt;stroke-linejoin:miter;stroke-miterlimit:4;stroke-dasharray:none;stroke-dashoffset:0;stroke-opacity:1"
       d="m 77.454706,184.37262 c -0.640667,0.19544 -0.578284,-0.56977 -0.935442,-0.74835 -0.05578,-0.0279 -0.142992,0.0441 -0.18709,0 -0.0441,-0.0441 0.0441,-0.14299 0,-0.18709 -0.0441,-0.0441 -0.142991,0.0441 -0.187089,0 -0.0441,-0.0441 0.0441,-0.14299 0,-0.18709 -0.0441,-0.0441 -0.13131,0.0279 -0.187087,0 -0.07889,-0.0394 -0.108207,-0.14765 -0.18709,-0.18709 -0.05578,-0.0279 -0.142991,0.0441 -0.187089,0 -0.249452,-0.24945 0.396875,-0.17952 -0.187087,-0.37418 -0.118327,-0.0394 -0.274397,0.0748 -0.374179,0 -0.179882,-0.13491 -0.215183,-0.40227 -0.374176,-0.56126 -0.0441,-0.0441 -0.131311,0.0279 -0.18709,0 -0.07888,-0.0394 -0.113707,-0.13817 -0.187089,-0.18709 0.0213,-0.35443 -0.436539,-0.12473 -0.561266,-0.18709 -0.07888,-0.0394 -0.108204,-0.14765 -0.187087,-0.18709 -0.05578,-0.0279 -0.127926,0.0197 -0.18709,0 -0.132291,-0.0441 -0.241885,-0.14299 -0.374176,-0.18709 -0.0728,-0.0243 -0.532233,0.029 -0.561266,0 -0.0441,-0.0441 0.04409,-0.14299 0,-0.18709 -0.0441,-0.0441 -0.124727,0 -0.18709,0 -0.08821,0 -0.926965,-0.008 -0.935442,0 -0.0441,0.0441 0.0441,0.143 0,0.18709 -0.04502,0.045 -0.703336,-0.045 -0.748355,0 -0.0441,0.0441 0.0441,0.143 0,0.18709 -0.08819,0.0882 -0.26262,-0.0558 -0.374177,0 -0.07888,0.0394 -0.108206,0.14765 -0.187089,0.18709 -0.07418,0.0371 -0.523018,-0.0383 -0.561266,0 -0.0441,0.0441 0.0441,0.14299 0,0.18709 -0.0441,0.0441 -0.124727,0 -0.18709,0 -0.06236,0 -0.124724,0 -0.187087,0"
       id="path4616"
       inkscape:connector-curvature="0" />
    <path
       style="opacity:1;fill:#008000;fill-opacity:1;fill-rule:evenodd;stroke:#008000;stroke-width:0.76499999;stroke-linecap:butt;stroke-linejoin:miter;stroke-miterlimit:4;stroke-dasharray:none;stroke-dashoffset:0;stroke-opacity:1"
       d="m 91.860533,186.61769 c 0.124724,-0.24945 0.206841,-0.52524 0.374176,-0.74836 0.03742,-0.0499 0.124728,0 0.18709,0 0.06236,-0.0624 0.147648,-0.10821 0.187089,-0.18709 0.05578,-0.11156 -0.0882,-0.28598 0,-0.37417 0.0441,-0.0441 0.142992,0.0441 0.187087,0 0.499264,-0.49927 -0.499261,0.12508 0,-0.37418 0.0441,-0.0441 0.142992,0.0441 0.18709,0 0.0441,-0.0441 -0.0441,-0.14299 0,-0.18709 0.0441,-0.0441 0.142991,0.0441 0.187089,0 0.0441,-0.0441 -0.0441,-0.14299 0,-0.18709 0.387094,-0.38709 -0.01513,0.59153 0.374177,-0.18709 0.02789,-0.0558 -0.0441,-0.14299 0,-0.18709 0.0441,-0.0441 0.142991,0.0441 0.187089,0 0.0441,-0.0441 -0.0441,-0.14299 0,-0.18709 0.04502,-0.045 0.703334,0.045 0.748353,0 0.0441,-0.0441 -0.0441,-0.14299 0,-0.18709 0.214979,-0.21497 0.330872,-0.18708 0.561268,-0.18708 0.06236,0 0.127927,0.0197 0.187087,0 0.644935,-0.21498 0.138589,-0.18709 0.561266,-0.18709"
       id="path4620"
       inkscape:connector-curvature="0" />
  </g>
</svg>
